<svg class="donate-btn-icon" viewBox="0 0 30 30" xmlns="http://www.w3.org/2000/svg">
                <path d="M8.612 15.597c2.798.48 4.948 2.65 5.436 5.49.644 3.757-1.885 7.34-5.545 7.848-3.474.488-6.657-1.814-7.37-5.332-.053-.266-.09-.532-.133-.795v-1.125c.143-.597.236-1.21.435-1.787 1.048-3 4.115-4.824 7.177-4.299zm-1.586 2.506c-1.111.28-1.878 1.255-1.914 2.434-.034 1.095.703 2.121 1.782 2.445.285.085.59.089.882.157.395.089.637.453.61.88-.022.378-.321.712-.686.756a.815.815 0 0 1-.9-.566c-.03-.081-.05-.173-.072-.248H5.135a2.46 2.46 0 0 0 2.38 2.506c1.137.044 2.14-.737 2.448-1.913.282-1.057-.236-2.264-1.181-2.806-.412-.239-.856-.3-1.311-.348-.395-.044-.697-.389-.717-.794a.85.85 0 0 1 .68-.863c.372-.078.757.143.9.518.036.092.056.195.083.29h1.602c.01-1.602-1.506-2.826-2.993-2.448zm8.012-13.145c.268.375.504.774.726 1.121.468-.627.9-1.302 1.42-1.895 1.318-1.5 2.977-2.227 4.955-2.179 3.481.082 6.146 2.687 6.733 6.202.392 2.318-.126 4.436-1.41 6.369-1.085 1.626-2.453 2.997-3.896 4.272-2.545 2.243-5.11 4.456-7.672 6.686l-.097.075c-.537-.426-.52-.423-.348-1.044.714-2.59.309-5.005-1.198-7.2-1.274-1.859-3.033-2.987-5.21-3.406-1.533-.297-3.026-.127-4.473.473a22.12 22.12 0 0 1-.448.178c-.305-.634-.657-1.248-.903-1.903-.919-2.478-.766-4.91.515-7.214C4.804 3.57 6.44 2.407 8.583 2.087c2.715-.41 4.842.64 6.455 2.87z" fill="#FFF" fill-rule="evenodd"></path>
            </svg>